<svg width="96" height="96" fill="none" xmlns="http://www.w3.org/2000/svg"><path d="M48 96c26.51 0 48-21.49 48-48S74.51 0 48 0 0 21.49 0 48s21.49 48 48 48z" fill="#fff"/><path fill-rule="evenodd" clip-rule="evenodd" d="M68 24v28.772C68 57.554 54.704 72 48.378 72H28V24h40zM46.724 68C55.036 68 52 56 52 56s12 3.3 12-4.914V28H32v40h14.724zM48 60v2H38v-2h10zm-10-4h10v2H38v-2zm0-4h20v2H38v-2zm0-4h20v2H38v-2zm7.382-6.348l-4.11.002-.78 2.344L38 44l4.226-11.378 2.172-.002 4.266 11.372-2.492.002-.79-2.342zm8.746-4.03l2.82-.002.002 2.038-2.82.002.002 3.188-2.148.002-.002-3.188-2.828.002-.002-2.038 2.828-.002-.002-3.056h2.148l.002 3.054zm-12.224 2.134l2.844-.002-1.434-4.258-1.41 4.26z" fill="#50C4EE"/></svg>