<svg width="48" height="48" fill="none" xmlns="http://www.w3.org/2000/svg"><path fill-rule="evenodd" clip-rule="evenodd" d="M34.302 19.076c2.624.102 4.638 2.208 4.676 4.908v2.252c.768.156 3.532.72 4.278.894 3.248.834 4.734 3.374 4.722 6.656-.022 3.222-1.39 4.816-2.264 6.816-.516 1.224-.702 2.222-.734 3.55L44.978 48H31.536c.008-1.524-.17-3.49-.81-4.874-.858-1.866-2.75-3.498-4.92-5.832-1.61-1.834-1.808-4.032-.878-5.74.798-1.466 2.348-2.412 4.45-2.25 0-1.812-.022-3.624 0-5.434.14-2.954 2.388-4.824 4.924-4.794zM41.178 44c.054-3.276 1.072-5.112 1.892-6.676.644-1.228 1.106-2.112 1.106-3.544 0-1.63-.52-2.292-1.166-2.614-.472-.234-1.016.13-1.016.68v.966c0 .332-.256.602-.57.602a.588.588 0 01-.574-.602v-1.62c0-.428-.284-.792-.678-.874-.522-.11-1.01.314-1.01.874v.876c0 .334-.256.604-.57.604-.318 0-.574-.27-.574-.604v-1.344c0-.428-.286-.796-.682-.88-.526-.11-1.016.316-1.016.88v.606c0 .334-.256.604-.568.604a.589.589 0 01-.576-.604v-7.336c0-.546-.456-1.008-.998-1.008s-1 .462-1 1.008v12.594c-1.064-1.394-2.86-3.39-4.122-3.382-.834.002-1.13.724-.442 1.45 2.626 2.776 5.71 5.312 6.436 9.344h6.128zM48 25.276c-.278-.218-.57-.42-.87-.608-.966-.596-2.028-1.004-3.13-1.266V4.214c-10.34.78-15.094 2.944-18 4.664V26c-1.72.578-3.064 1.704-4 3.066V8.884c-2.948-1.742-7.686-3.892-18-4.67v27.408c7.448.51 13.244 2.026 16.636 3.132.082.7.25 1.392.496 2.052.432 1.166 1.104 2.214 1.942 3.128a6.346 6.346 0 01-1.74-.514C15.59 36.79 7.874 35.67 0 35.43V0c9.168.282 18.124 1.754 24 5.414C29.876 1.754 38.832.282 48 0v25.276zM8 27.462c4.172.624 8.902 2.048 12 3.348v-2.13c-3.336-1.244-7.762-2.628-12-3.252v2.034zM8 23.4c4.172.624 8.902 2.046 12 3.346v-2.128c-3.336-1.244-7.762-2.632-12-3.25V23.4zm0-4.062c4.172.622 8.902 2.046 12 3.346v-2.128c-3.336-1.244-7.762-2.632-12-3.252v2.034zm0-4.062c4.172.622 8.902 2.048 12 3.344v-2.128c-3.336-1.244-7.762-2.628-12-3.25v2.034zm32-2.034c-4.24.622-8.664 2.006-12 3.25v2.128c3.096-1.296 7.828-2.722 12-3.344v-2.034zM8 9.16c4.238.618 8.664 2.006 12 3.25v2.128c-3.098-1.298-7.828-2.722-12-3.346V9.16zm32 2.032c-4.172.624-8.904 2.048-12 3.346V12.41c3.336-1.244 7.76-2.632 12-3.25v2.032z" fill="#EE71C7"/></svg>