<svg width="44" height="48" fill="none" xmlns="http://www.w3.org/2000/svg"><path fill-rule="evenodd" clip-rule="evenodd" d="M29.992 48H4.782s1.468-7.862 1.266-11.373c-.082-1.448-.322-2.948-1.08-4.208-1.29-2-5.272-7.44-4.95-14.86C.466 7.14 9.404 0 20.27 0c10.196 0 17.014 6.002 19.716 14.967.656 2.158.622 3.082-.302 5.214l-.012.026 3.502 4.284c.52.762.826 1.582.826 2.478 0 1.094-.466 2.09-1.22 2.798-.736.69-1.534.904-2.496 1.284 0 0-1.152 5.185-1.746 6.583-1.4 3.286-3.94 3.318-5.94 3.698-.788.166-.98.266-1.362 1.362-.416 1.182-.726 2.87-1.244 5.306zM20.308 3.998c-8.57.096-15.48 5.096-16.242 12.977-.384 3.982.926 7.972 3.032 11.41 1.222 2 2.61 3.184 2.928 7.75.182 2.627-.1 5.273-.482 7.865h17.208c.282-1.29.7-2.97 1.374-4.114.898-1.532 2.194-2.198 3.852-2.508 1.676-.297 2.476-.118 2.978-1.57.424-1.159 1.224-4.443 1.662-7.805 2.406-.67 1.224-.322 3.342-1.118-.412-.468-3.836-4.628-4.09-5.2-.672-1.518-.092-2.38.45-3.826.172-.502.12-.714-.018-1.226C34.204 8.734 28.52 3.998 20.308 3.998zm1.04 6c.484 1.369.624 2.245 1.682 2.683h.002c1.06.442 1.786-.088 3.086-.706l1.906 1.904c-.624 1.31-1.146 2.032-.708 3.088v.002c.438 1.056 1.306 1.194 2.684 1.682v2.694c-1.362.486-2.246.626-2.684 1.686-.44 1.058.086 1.782.708 3.088l-1.906 1.904c-1.314-.626-2.028-1.148-3.082-.71h-.002c-1.062.444-1.202 1.322-1.686 2.686h-2.696c-.484-1.368-.624-2.244-1.682-2.68l-.002-.002c-1.058-.442-1.784.086-3.088.706l-1.904-1.904c.61-1.286 1.148-2.022.706-3.09-.44-1.058-1.322-1.198-2.682-1.684V18.65c1.362-.484 2.242-.624 2.682-1.682.44-1.062-.084-1.782-.706-3.09l1.904-1.904c1.314.623 2.03 1.146 3.088.706h.002c1.058-.438 1.198-1.322 1.682-2.683h2.696zM20 23.333a3.334 3.334 0 010-6.668 3.333 3.333 0 013.332 3.334A3.333 3.333 0 0120 23.333z" fill="#9177F5"/></svg>