<svg width="96" height="96" fill="none" xmlns="http://www.w3.org/2000/svg"><path d="M48 96c26.51 0 48-21.49 48-48S74.51 0 48 0 0 21.49 0 48s21.49 48 48 48z" fill="#fff"/><path fill-rule="evenodd" clip-rule="evenodd" d="M42.165 28.606A5.992 5.992 0 0148.001 24a5.993 5.993 0 015.846 4.632c3.402.844 6.233 2.612 8.111 5.62 1.496 2.398 2.108 4.786 3.106 12.178 2.004.53 3.268 1.73 3.824 3.52.526 1.692 1.032 7.182 1.108 10.058.07 2.946-.79 5.28-3.762 6.262l-.02.006c-.996 6.156-7.053 5.696-9.053 5.718-2.888.018-5.384-.008-9.152-.022-2.396.008-10.65.026-11.607-.032-3.968-.316-6.06-2.456-6.594-5.658-2.288-.726-3.808-2.6-3.808-5.61 0-2.54.41-7.206.964-10.112.466-2.166 1.772-3.55 3.988-4.134.94-7.296 1.608-10.378 3.736-13.176 1.901-2.502 4.49-3.912 7.477-4.644zm-5.654 9.646c-.871 2.482-1.677 9.332-1.981 11.83-.662.04-1.34.064-2.008.124-1.376.146-1.53.51-1.69 1.454-.548 3.204-.826 6.918-.83 9.13.02 1.186.408 1.594 1.39 1.774.312.054 1.858.18 2.2.21.166 4.822.256 5.176 5.297 5.222 2.67.016 9.12-.022 9.12-.022 5.274.02 6.98.042 9.724.016 4.561-.044 4.545-.84 4.693-5.214.664-.058 1.328-.106 1.99-.182 1.672-.236 1.624-1.084 1.568-2.78a62.819 62.819 0 00-.85-8.39c-.136-.682-.356-.972-1.138-1.14-.548-.124-1.94-.17-2.504-.204-.247-2-1.095-9.158-1.981-11.704-1.754-5.046-6.168-6.38-11.554-6.38-5.3 0-9.685 1.256-11.446 6.256zm23.491 21.726c-.024 3.846-1.801 5.874-5.775 5.996a644.2 644.2 0 01-12.434 0c-3.791-.122-5.707-2.328-5.791-5.856v-8.136h24v7.996zm-13.999-5.996h-8c0 2.072-.045 4.142.002 6.212.09 2.636 1.422 3.7 3.83 3.78 4.118.042 8.236.038 12.352 0 2.766-.086 3.79-1.13 3.818-4.002v-5.99h-8.002v5.996c0 1.102-.898 2-2 2-1.104 0-2-.898-2-2v-5.996zm.892-16.392c-3.888.298-5.906 1.546-6.426 10.416-.124 1.264-1.922 1.258-2-.038.026-1.404.306-3.89.702-5.608.718-3.084 2.066-5.484 5.086-6.37 1.948-.572 5.562-.57 7.498 0 2.91.852 4.266 3.11 4.992 6.074.488 2 .784 5.312.732 6.032-.168 1.164-1.79 1.186-1.986.02-.612-6.192-.672-10.252-6.51-10.534l1.352 4.67a2.39 2.39 0 01-2.332 2.91 2.39 2.39 0 01-2.342-2.86l1.234-4.712zm1.108 3.988c.66 0 1.196.536 1.196 1.194a1.195 1.195 0 11-1.196-1.194zm3.582-13.366a3.97 3.97 0 00-3.594-2.214c-1.628.02-2.92.92-3.566 2.204 2.164-.266 4.896-.282 7.16.01z" fill="#6B5CF6"/></svg>