<svg width="48" height="48" fill="none" xmlns="http://www.w3.org/2000/svg"><path fill-rule="evenodd" clip-rule="evenodd" d="M20 46c0-2.21 1.79-4 4-4h4a4.001 4.001 0 014 4v2H20v-2zm16 0c0-2.21 1.79-4 4-4h4a4.001 4.001 0 014 4v2H36v-2zM13.518 18a7.371 7.371 0 003.384-.872c1.51-.84 5.39-3.286 6.97-4.248a1.01 1.01 0 011.308.226l.016.022c.33.408.292.998-.086 1.36-1.244 1.194-4.886 4.656-6.74 6.426a5.587 5.587 0 00-1.706 3.808c-.19 4.414-.522 13.824-.662 17.666A1.676 1.676 0 0114.328 44h-.002c-.888 0-1.572-.694-1.672-1.576-.222-1.962-.658-6.56-.852-8.424-.08-.768-.56-1.226-1.17-1.23-.608-.002-1.046.452-1.098 1.218-.122 1.842-.53 6.496-.682 8.44A1.69 1.69 0 017.172 44H7.17a1.685 1.685 0 01-1.684-1.616c-.194-4.684-.738-17.928-.738-17.928l-2.574 4.66c-.28.506-.89.728-1.43.52H.742a1.16 1.16 0 01-.698-1.396l2.488-8.786A2 2 0 014.456 18h9.062zM26 32c2.484 0 4.5 2.016 4.5 4.5S28.484 41 26 41a4.502 4.502 0 01-4.5-4.5c0-2.484 2.016-4.5 4.5-4.5zm16 0c2.484 0 4.5 2.016 4.5 4.5S44.484 41 42 41a4.502 4.502 0 01-4.5-4.5c0-2.484 2.016-4.5 4.5-4.5zm6-2H20v-4h14v-2h6v2h4V4H4v8.712l-4 4V0h48v30zM34 20h-6v-2h6v2zM10.748 8c2.482 0 4.5 2.016 4.5 4.5s-2.018 4.5-4.5 4.5a4.502 4.502 0 01-4.5-4.5c0-2.484 2.016-4.5 4.5-4.5zM40 16H28v-2h12v2zm0-4H28v-2h12v2z" fill="#6B5CF6"/></svg>