<svg width="96" height="96" fill="none" xmlns="http://www.w3.org/2000/svg"><path d="M48 96c26.51 0 48-21.49 48-48S74.51 0 48 0 0 21.49 0 48s21.49 48 48 48z" fill="#F1F0FF"/><path fill-rule="evenodd" clip-rule="evenodd" d="M44 70c0-2.21 1.79-4 4-4h4a4.001 4.001 0 014 4v2H44v-2zm16 0c0-2.21 1.79-4 4-4h4a4.001 4.001 0 014 4v2H60v-2zM37.518 42a7.371 7.371 0 003.384-.872c1.51-.84 5.39-3.286 6.97-4.248a1.01 1.01 0 011.308.226l.016.022c.33.408.292.998-.086 1.36-1.244 1.194-4.886 4.656-6.74 6.426a5.587 5.587 0 00-1.706 3.808c-.19 4.414-.522 13.824-.662 17.666A1.676 1.676 0 0138.328 68h-.002c-.888 0-1.572-.694-1.672-1.576-.222-1.962-.658-6.56-.852-8.424-.08-.768-.56-1.226-1.17-1.23-.608-.002-1.046.452-1.098 1.218-.122 1.842-.53 6.496-.682 8.44A1.69 1.69 0 0131.172 68h-.002a1.685 1.685 0 01-1.684-1.616c-.194-4.684-.738-17.928-.738-17.928l-2.574 4.66c-.28.506-.89.728-1.43.52h-.002a1.16 1.16 0 01-.698-1.396l2.488-8.786A2 2 0 0128.456 42h9.062zM50 56c2.484 0 4.5 2.016 4.5 4.5S52.484 65 50 65a4.502 4.502 0 01-4.5-4.5c0-2.484 2.016-4.5 4.5-4.5zm16 0c2.484 0 4.5 2.016 4.5 4.5S68.484 65 66 65a4.502 4.502 0 01-4.5-4.5c0-2.484 2.016-4.5 4.5-4.5zm6-2H44v-4h14v-2h6v2h4V28H28v8.712l-4 4V24h48v30zM58 44h-6v-2h6v2zM34.748 32c2.482 0 4.5 2.016 4.5 4.5s-2.018 4.5-4.5 4.5a4.502 4.502 0 01-4.5-4.5c0-2.484 2.016-4.5 4.5-4.5zM64 40H52v-2h12v2zm0-4H52v-2h12v2z" fill="#6B5CF6"/></svg>