<svg width="48" height="48" fill="none" xmlns="http://www.w3.org/2000/svg"><path opacity=".095" d="M24 48c13.255 0 24-10.745 24-24S37.255 0 24 0 0 10.745 0 24s10.745 24 24 24z" fill="#fff"/><path d="M32 19.54a6.57 6.57 0 01-1.885.517 3.297 3.297 0 001.444-1.816 6.568 6.568 0 01-2.086.796 3.286 3.286 0 00-5.593 2.993 9.323 9.323 0 01-6.765-3.429 3.287 3.287 0 001.016 4.383 3.276 3.276 0 01-1.486-.41c-.036 1.52 1.055 2.942 2.634 3.26a3.289 3.289 0 01-1.483.055 3.287 3.287 0 003.067 2.279A6.606 6.606 0 0116 29.529a9.284 9.284 0 005.03 1.475c6.097 0 9.54-5.148 9.331-9.765A6.618 6.618 0 0032 19.54z" fill="#fff"/></svg>