<svg width="96" height="96" viewBox="0 0 96 96" fill="none" xmlns="http://www.w3.org/2000/svg">
<path d="M48 96C74.5097 96 96 74.5097 96 48C96 21.4903 74.5097 0 48 0C21.4903 0 0 21.4903 0 48C0 74.5097 21.4903 96 48 96Z" fill="white"/>
<path fill-rule="evenodd" clip-rule="evenodd" d="M68 24V52.772C68 57.554 54.704 72 48.378 72H28V24H68ZM46.724 68C55.036 68 52 56 52 56C52 56 64 59.3 64 51.086V28H32V68H46.724ZM48 60V62H38V60H48ZM38 56H48V58H38V56ZM38 52H58V54H38V52ZM38 48H58V50H38V48ZM45.382 41.652L41.272 41.654L40.492 43.998L38 44L42.226 32.622L44.398 32.62L48.664 43.992L46.172 43.994L45.382 41.652ZM54.128 37.622L56.948 37.62L56.95 39.658L54.13 39.66L54.132 42.848L51.984 42.85L51.982 39.662L49.154 39.664L49.152 37.626L51.98 37.624L51.978 34.568H54.126L54.128 37.622ZM41.904 39.756L44.748 39.754L43.314 35.496L41.904 39.756Z" fill="#50C4EE"/>
</svg>
