<svg width="96" height="96" viewBox="0 0 96 96" fill="none" xmlns="http://www.w3.org/2000/svg">
<path d="M48 96C74.5097 96 96 74.5097 96 48C96 21.4903 74.5097 0 48 0C21.4903 0 0 21.4903 0 48C0 74.5097 21.4903 96 48 96Z" fill="#F1F0FF"/>
<path fill-rule="evenodd" clip-rule="evenodd" d="M58.302 43.076C60.926 43.178 62.94 45.284 62.978 47.984V50.236C63.746 50.392 66.51 50.956 67.256 51.13C70.504 51.964 71.99 54.504 71.978 57.786C71.956 61.008 70.588 62.602 69.714 64.602C69.198 65.826 69.012 66.824 68.98 68.152L68.978 72H55.536C55.544 70.476 55.366 68.51 54.726 67.126C53.868 65.26 51.976 63.628 49.806 61.294C48.196 59.46 47.998 57.262 48.928 55.554C49.726 54.088 51.276 53.142 53.378 53.304C53.378 51.492 53.356 49.68 53.378 47.87C53.518 44.916 55.766 43.046 58.302 43.076ZM65.178 68C65.232 64.724 66.25 62.888 67.07 61.324C67.714 60.096 68.176 59.212 68.176 57.78C68.176 56.15 67.656 55.488 67.01 55.166C66.538 54.932 65.994 55.296 65.994 55.846V56.812C65.994 57.144 65.738 57.414 65.424 57.414C65.106 57.414 64.85 57.144 64.85 56.812V55.192C64.85 54.764 64.566 54.4 64.172 54.318C63.65 54.208 63.162 54.632 63.162 55.192V56.068C63.162 56.402 62.906 56.672 62.592 56.672C62.274 56.672 62.018 56.402 62.018 56.068V54.724C62.018 54.296 61.732 53.928 61.336 53.844C60.81 53.734 60.32 54.16 60.32 54.724V55.33C60.32 55.664 60.064 55.934 59.752 55.934C59.432 55.934 59.176 55.664 59.176 55.33V47.994C59.176 47.448 58.72 46.986 58.178 46.986C57.636 46.986 57.178 47.448 57.178 47.994V60.588C56.114 59.194 54.318 57.198 53.056 57.206C52.222 57.208 51.926 57.93 52.614 58.656C55.24 61.432 58.324 63.968 59.05 68H65.178ZM72 49.276C71.722 49.058 71.43 48.856 71.13 48.668C70.164 48.072 69.102 47.664 68 47.402V28.214C57.66 28.994 52.906 31.158 50 32.878V50C48.28 50.578 46.936 51.704 46 53.066V32.884C43.052 31.142 38.314 28.992 28 28.214V55.622C35.448 56.132 41.244 57.648 44.636 58.754C44.718 59.454 44.886 60.146 45.132 60.806C45.564 61.972 46.236 63.02 47.074 63.934C46.478 63.848 45.892 63.676 45.334 63.42C39.59 60.79 31.874 59.67 24 59.43V24C33.168 24.282 42.124 25.754 48 29.414C53.876 25.754 62.832 24.282 72 24V49.276ZM32 51.462C36.172 52.086 40.902 53.51 44 54.81V52.68C40.664 51.436 36.238 50.052 32 49.428V51.462ZM32 47.4C36.172 48.024 40.902 49.446 44 50.746V48.618C40.664 47.374 36.238 45.986 32 45.368V47.4ZM32 43.338C36.172 43.96 40.902 45.384 44 46.684V44.556C40.664 43.312 36.238 41.924 32 41.304V43.338ZM32 39.276C36.172 39.898 40.902 41.324 44 42.62V40.492C40.664 39.248 36.238 37.864 32 37.242V39.276ZM64 37.242C59.76 37.864 55.336 39.248 52 40.492V42.62C55.096 41.324 59.828 39.898 64 39.276V37.242ZM32 33.16C36.238 33.778 40.664 35.166 44 36.41V38.538C40.902 37.24 36.172 35.816 32 35.192V33.16ZM64 35.192C59.828 35.816 55.096 37.24 52 38.538V36.41C55.336 35.166 59.76 33.778 64 33.16V35.192Z" fill="#EE71C7"/>
</svg>
