<svg width="96" height="96" viewBox="0 0 96 96" fill="none" xmlns="http://www.w3.org/2000/svg">
<path d="M48 96C74.5097 96 96 74.5097 96 48C96 21.4903 74.5097 0 48 0C21.4903 0 0 21.4903 0 48C0 74.5097 21.4903 96 48 96Z" fill="#F1F0FF"/>
<path fill-rule="evenodd" clip-rule="evenodd" d="M55.9921 72H30.7824C30.7824 72 32.2504 64.1377 32.0484 60.6275C31.9664 59.1795 31.7264 57.6794 30.9684 56.4193C29.6784 54.4193 25.6965 48.979 26.0185 41.5587C26.4664 31.1403 35.4044 24 46.2702 24C56.4661 24 63.2841 30.0022 65.986 38.9666C66.642 41.1247 66.608 42.0488 65.684 44.1808L65.672 44.2068L69.174 48.491C69.694 49.2531 70 50.0731 70 50.9691C70 52.0632 69.534 53.0592 68.78 53.7672C68.044 54.4573 67.246 54.6713 66.284 55.0513C66.284 55.0513 65.132 60.2355 64.5381 61.6336C63.1381 64.9197 60.5981 64.9517 58.5981 65.3317C57.8101 65.4977 57.6181 65.5977 57.2361 66.6938C56.8201 67.8758 56.5101 69.5639 55.9921 72ZM46.3082 27.9982C37.7383 28.0942 30.8284 33.0944 30.0664 40.9747C29.6824 44.9569 30.9924 48.947 33.0984 52.3852C34.3204 54.3853 35.7084 55.5693 36.0263 60.1355C36.2083 62.7616 35.9263 65.4077 35.5444 67.9998H52.7522C53.0342 66.7098 53.4522 65.0297 54.1262 63.8857C55.0242 62.3536 56.3201 61.6876 57.9781 61.3776C59.6541 61.0815 60.4541 61.2596 60.9561 59.8075C61.3801 58.6494 62.1801 55.3653 62.6181 52.0032C65.0241 51.3331 63.8421 51.6812 65.96 50.8851C65.548 50.4171 62.1241 46.2569 61.8701 45.6849C61.1981 44.1668 61.7781 43.3048 62.3201 41.8587C62.4921 41.3567 62.4401 41.1447 62.3021 40.6327C60.2041 32.7344 54.5202 27.9982 46.3082 27.9982ZM47.3482 33.9984C47.8322 35.3665 47.9722 36.2425 49.0302 36.6805H49.0322C50.0922 37.1225 50.8182 36.5925 52.1182 35.9745L54.0242 37.8786C53.4002 39.1886 52.8782 39.9107 53.3162 40.9667V40.9687C53.7542 42.0248 54.6222 42.1628 56.0001 42.6508V45.3449C54.6382 45.8309 53.7542 45.9709 53.3162 47.031C52.8762 48.089 53.4022 48.813 54.0242 50.1191L52.1182 52.0232C50.8042 51.3971 50.0902 50.8751 49.0362 51.3131H49.0342C47.9722 51.7572 47.8322 52.6352 47.3482 53.9993H44.6523C44.1683 52.6312 44.0283 51.7552 42.9703 51.3191L42.9683 51.3171C41.9103 50.8751 41.1843 51.4031 39.8803 52.0232L37.9763 50.1191C38.5863 48.833 39.1243 48.097 38.6823 47.029C38.2423 45.9709 37.3603 45.8309 36.0003 45.3449V42.6508C37.3623 42.1668 38.2423 42.0268 38.6823 40.9687C39.1223 39.9067 38.5983 39.1866 37.9763 37.8786L39.8803 35.9745C41.1943 36.5985 41.9103 37.1205 42.9683 36.6805H42.9703C44.0283 36.2425 44.1683 35.3585 44.6523 33.9984H47.3482ZM46.0002 47.333C44.1603 47.333 42.6663 45.8409 42.6663 43.9988C42.6663 42.1568 44.1603 40.6647 46.0002 40.6647C47.8402 40.6647 49.3322 42.1568 49.3322 43.9988C49.3322 45.8409 47.8402 47.333 46.0002 47.333Z" fill="#9177F5"/>
</svg>
