<svg width="48" height="48" viewBox="0 0 48 48" fill="none" xmlns="http://www.w3.org/2000/svg">
<rect width="48" height="48" rx="24" fill="#95D354"/>
<path fill-rule="evenodd" clip-rule="evenodd" d="M27.844 24.6151L32.9941 29.7309C33.1209 31.2497 31.1858 33.1172 29.7081 32.9942L24.5142 27.8349C20.0882 29.8089 15 26.5914 15 21.7103C15 18.0105 18.0307 15 21.7546 15C26.7492 15 29.9837 20.2066 27.844 24.6151ZM17.2447 21.7103C17.2447 24.1801 19.2682 26.1901 21.7546 26.1901C24.2417 26.1901 26.2652 24.1801 26.2652 21.7103C26.2652 19.2406 24.2417 17.2305 21.7546 17.2305C19.2682 17.2305 17.2447 19.2406 17.2447 21.7103Z" fill="white"/>
</svg>
