<svg width="96" height="96" viewBox="0 0 96 96" fill="none" xmlns="http://www.w3.org/2000/svg">
<path d="M48 96C74.5097 96 96 74.5097 96 48C96 21.4903 74.5097 0 48 0C21.4903 0 0 21.4903 0 48C0 74.5097 21.4903 96 48 96Z" fill="white"/>
<path fill-rule="evenodd" clip-rule="evenodd" d="M42.1653 28.606C42.7633 26.034 45.1012 24 48.0011 24C50.9749 24 53.2788 26.114 53.8468 28.632C57.2487 29.476 60.0805 31.244 61.9585 34.252C63.4544 36.65 64.0664 39.038 65.0643 46.4299C67.0682 46.9599 68.3322 48.1599 68.8882 49.9499C69.4141 51.6419 69.9201 57.1319 69.9961 60.0079C70.0661 62.9539 69.2061 65.2879 66.2343 66.2699L66.2143 66.2759C65.2183 72.4319 59.1606 71.9719 57.1607 71.9939C54.2728 72.0119 51.7769 71.9859 48.0091 71.9719C45.6132 71.9799 37.3595 71.9979 36.4016 71.9399C32.4337 71.6239 30.3418 69.4839 29.8078 66.2819C27.5199 65.5559 26 63.6819 26 60.6719C26 58.1319 26.41 53.4659 26.964 50.5599C27.4299 48.3939 28.7359 47.0099 30.9518 46.4259C31.8917 39.13 32.5597 36.048 34.6876 33.25C36.5895 30.748 39.1774 29.338 42.1653 28.606ZM36.5115 38.252C35.6396 40.734 34.8336 47.5839 34.5296 50.0819C33.8677 50.1219 33.1897 50.1459 32.5217 50.2059C31.1458 50.3519 30.9918 50.7159 30.8318 51.6599C30.2838 54.8639 30.0058 58.5779 30.0018 60.7899C30.0218 61.9759 30.4098 62.3839 31.3918 62.5639C31.7038 62.6179 33.2497 62.7439 33.5917 62.7739C33.7577 67.5959 33.8477 67.9499 38.8894 67.9959C41.5593 68.0119 48.0091 67.9739 48.0091 67.9739C53.2828 67.9939 54.9888 68.0159 57.7326 67.9899C62.2944 67.9459 62.2784 67.1499 62.4264 62.7759C63.0904 62.7179 63.7544 62.6699 64.4163 62.5939C66.0883 62.3579 66.0403 61.5099 65.9843 59.8139C65.9043 57.2599 65.6163 54.1999 65.1343 51.4239C64.9983 50.7419 64.7783 50.4519 63.9964 50.2839C63.4484 50.1599 62.0564 50.1139 61.4925 50.0799C61.2445 48.0799 60.3965 40.922 59.5106 38.376C57.7566 33.33 53.3428 31.996 47.9571 31.996C42.6573 31.996 38.2715 33.252 36.5115 38.252ZM60.0025 59.9779C59.9785 63.8239 58.2006 65.8519 54.2268 65.9739C50.081 66.0119 45.9391 66.0159 41.7933 65.9739C38.0015 65.8519 36.0856 63.6459 36.0016 60.1179V51.9819H60.0025V59.9779ZM46.0031 53.9819H38.0035C38.0035 56.0539 37.9575 58.1239 38.0055 60.1939C38.0955 62.8299 39.4274 63.8939 41.8353 63.9739C45.9531 64.0159 50.071 64.0119 54.1868 63.9739C56.9527 63.8879 57.9766 62.8439 58.0046 59.9719V53.9819H50.003V59.9779C50.003 61.0799 49.105 61.9779 48.0031 61.9779C46.8991 61.9779 46.0031 61.0799 46.0031 59.9779V53.9819ZM46.8951 37.59C43.0073 37.888 40.9894 39.136 40.4694 48.0059C40.3454 49.2699 38.5475 49.2639 38.4695 47.9679C38.4955 46.5639 38.7755 44.0779 39.1714 42.3599C39.8894 39.276 41.2373 36.876 44.2572 35.99C46.2051 35.418 49.819 35.42 51.7549 35.99C54.6648 36.842 56.0207 39.1 56.7467 42.0639C57.2347 44.0639 57.5306 47.3759 57.4786 48.0959C57.3107 49.2599 55.6887 49.2819 55.4927 48.1159C54.8808 41.924 54.8208 37.864 48.983 37.582L50.335 42.2519C50.6669 43.7519 49.525 45.1619 48.0031 45.1619C46.5011 45.1619 45.3652 43.7859 45.6612 42.302L46.8951 37.59ZM48.0031 41.578C48.663 41.578 49.199 42.114 49.199 42.7719C49.199 43.4319 48.663 43.9679 48.0031 43.9679C47.3431 43.9679 46.8091 43.4319 46.8091 42.7719C46.8091 42.114 47.3431 41.578 48.0031 41.578ZM51.5849 28.212C50.9289 26.894 49.595 25.998 47.9911 25.998C46.3631 26.018 45.0712 26.918 44.4252 28.202C46.5891 27.936 49.321 27.92 51.5849 28.212Z" fill="#6B5CF6"/>
</svg>
