<svg width="96" height="96" viewBox="0 0 96 96" fill="none" xmlns="http://www.w3.org/2000/svg">
<path d="M48 96C74.5097 96 96 74.5097 96 48C96 21.4903 74.5097 0 48 0C21.4903 0 0 21.4903 0 48C0 74.5097 21.4903 96 48 96Z" fill="#F1F0FF"/>
<path fill-rule="evenodd" clip-rule="evenodd" d="M44 70C44 67.79 45.79 66 48 66H52C53.06 66 54.078 66.422 54.828 67.172C55.578 67.922 56 68.94 56 70V72H44V70ZM60 70C60 67.79 61.79 66 64 66H68C69.06 66 70.078 66.422 70.828 67.172C71.578 67.922 72 68.94 72 70V72H60V70ZM37.518 42C38.816 42 40.104 41.574 40.902 41.128C42.412 40.288 46.292 37.842 47.872 36.88C48.304 36.618 48.862 36.714 49.18 37.106L49.196 37.128C49.526 37.536 49.488 38.126 49.11 38.488C47.866 39.682 44.224 43.144 42.37 44.914C41.326 45.912 40.726 47.28 40.664 48.722C40.474 53.136 40.142 62.546 40.002 66.388C39.968 67.288 39.228 68 38.328 68H38.326C37.438 68 36.754 67.306 36.654 66.424C36.432 64.462 35.996 59.864 35.802 58C35.722 57.232 35.242 56.774 34.632 56.77C34.024 56.768 33.586 57.222 33.534 57.988C33.412 59.83 33.004 64.484 32.852 66.428C32.784 67.312 32.058 68 31.172 68H31.17C30.266 68 29.522 67.286 29.486 66.384C29.292 61.7 28.748 48.456 28.748 48.456L26.174 53.116C25.894 53.622 25.284 53.844 24.744 53.636H24.742C24.184 53.42 23.882 52.814 24.044 52.24L26.532 43.454C26.776 42.594 27.562 42 28.456 42H37.518V42ZM50 56C52.484 56 54.5 58.016 54.5 60.5C54.5 62.984 52.484 65 50 65C47.516 65 45.5 62.984 45.5 60.5C45.5 58.016 47.516 56 50 56ZM66 56C68.484 56 70.5 58.016 70.5 60.5C70.5 62.984 68.484 65 66 65C63.516 65 61.5 62.984 61.5 60.5C61.5 58.016 63.516 56 66 56ZM72 54H44V50H58V48H64V50H68V28H28V36.712L24 40.712V24H72V54ZM58 44H52V42H58V44ZM34.748 32C37.23 32 39.248 34.016 39.248 36.5C39.248 38.984 37.23 41 34.748 41C32.264 41 30.248 38.984 30.248 36.5C30.248 34.016 32.264 32 34.748 32ZM64 40H52V38H64V40ZM64 36H52V34H64V36Z" fill="#6B5CF6"/>
</svg>
